<svg width="45" height="45" viewBox="0 0 45 45" fill="none" xmlns="http://www.w3.org/2000/svg">
<path d="M10 7.5C9.17157 7.5 8.5 8.17157 8.5 9V27.7778C8.5 28.6062 9.17157 29.2778 10 29.2778H28.7778C29.6062 29.2778 30.2778 28.6062 30.2778 27.7778V9C30.2778 8.17157 29.6062 7.5 28.7778 7.5H10Z" stroke="#0E0025" stroke-width="3" stroke-linejoin="round"/>
<path d="M17.2222 14.7222C16.3937 14.7222 15.7222 15.3937 15.7222 16.2222V34.9999C15.7222 35.8284 16.3937 36.4999 17.2222 36.4999H35.9999C36.8284 36.4999 37.4999 35.8284 37.4999 34.9999V16.2222C37.4999 15.3937 36.8284 14.7222 35.9999 14.7222H17.2222Z" stroke="#0E0025" stroke-width="3" stroke-linejoin="round"/>
</svg>
