<svg width="45" height="45" viewBox="0 0 45 45" fill="none" xmlns="http://www.w3.org/2000/svg">
<path d="M29.3106 14.692C29.3106 18.66 26.0836 21.884 22.0938 21.884C18.104 21.884 14.877 18.66 14.877 14.692C14.877 10.724 18.104 7.5 22.0938 7.5C26.0836 7.5 29.3106 10.724 29.3106 14.692Z" stroke="#0E0025" stroke-width="3"/>
<path d="M22.5176 27.3532C25.3663 27.348 28.1338 28.2862 30.3907 30.0223C32.6476 31.7583 34.2679 34.1951 35.0002 36.9548" stroke="#0E0025" stroke-width="3" stroke-linecap="round" stroke-linejoin="round"/>
<path d="M15 38L10 33L15 28" stroke="#0E0025" stroke-width="3" stroke-linecap="round" stroke-linejoin="round"/>
<path d="M24 34.5C24.8284 34.5 25.5 33.8284 25.5 33C25.5 32.1716 24.8284 31.5 24 31.5V34.5ZM10 34.5H24V31.5H10V34.5Z" fill="#0E0025"/>
</svg>
