<svg width="45" height="45" viewBox="0 0 45 45" fill="none" xmlns="http://www.w3.org/2000/svg">
<path fill-rule="evenodd" clip-rule="evenodd" d="M8 9C8 8.44772 8.44771 8 9 8H12.8C13.3523 8 13.8 8.44771 13.8 9V12.8C13.8 13.3523 13.3523 13.8 12.8 13.8H9C8.44772 13.8 8 13.3523 8 12.8V9ZM8 20.5999C8 20.0476 8.44771 19.5999 9 19.5999H12.8C13.3523 19.5999 13.8 20.0476 13.8 20.5999V24.3999C13.8 24.9522 13.3523 25.3999 12.8 25.3999H9C8.44772 25.3999 8 24.9522 8 24.3999V20.5999ZM13.8 32.2C13.8 31.6477 13.3523 31.2 12.8 31.2H9C8.44772 31.2 8 31.6477 8 32.2V36C8 36.5523 8.44771 37 9 37H12.8C13.3523 37 13.8 36.5523 13.8 36V32.2ZM19.6004 9C19.6004 8.44772 20.0481 8 20.6004 8H24.4004C24.9527 8 25.4004 8.44771 25.4004 9V12.8C25.4004 13.3523 24.9527 13.8 24.4004 13.8H20.6004C20.0481 13.8 19.6004 13.3523 19.6004 12.8V9ZM25.4004 20.5999C25.4004 20.0476 24.9527 19.5999 24.4004 19.5999H20.6004C20.0481 19.5999 19.6004 20.0476 19.6004 20.5999V24.3999C19.6004 24.9522 20.0481 25.3999 20.6004 25.3999H24.4004C24.9527 25.3999 25.4004 24.9522 25.4004 24.3999V20.5999ZM19.6004 32.2C19.6004 31.6477 20.0481 31.2 20.6004 31.2H24.4004C24.9527 31.2 25.4004 31.6477 25.4004 32.2V36C25.4004 36.5523 24.9527 37 24.4004 37H20.6004C20.0481 37 19.6004 36.5523 19.6004 36V32.2ZM37 9C37 8.44772 36.5523 8 36 8H32.2C31.6477 8 31.2 8.44771 31.2 9V12.8C31.2 13.3523 31.6477 13.8 32.2 13.8H36C36.5523 13.8 37 13.3523 37 12.8V9ZM31.2 20.5999C31.2 20.0476 31.6477 19.5999 32.2 19.5999H36C36.5523 19.5999 37 20.0476 37 20.5999V24.3999C37 24.9522 36.5523 25.3999 36 25.3999H32.2C31.6477 25.3999 31.2 24.9522 31.2 24.3999V20.5999ZM37 32.2C37 31.6477 36.5523 31.2 36 31.2H32.2C31.6477 31.2 31.2 31.6477 31.2 32.2V36C31.2 36.5523 31.6477 37 32.2 37H36C36.5523 37 37 36.5523 37 36V32.2Z" fill="#F8FCFF"/>
</svg>
