<svg width="45" height="45" viewBox="0 0 45 45" fill="none" xmlns="http://www.w3.org/2000/svg">
<path d="M26.886 35.4926C18.884 37.6367 10.659 32.888 8.51484 24.886C6.37071 16.884 11.1194 8.65896 19.1214 6.51484C25.2163 4.88173 31.4405 7.24741 35.0087 12.0037" stroke="#0E0025" stroke-width="3" stroke-linecap="round"/>
<path d="M23.5039 12.0037V23.0037L19.0039 27.5037" stroke="#0E0025" stroke-width="3" stroke-linecap="round" stroke-linejoin="round"/>
<path d="M35.3674 32.473L35.3675 32.473L35.3684 32.4605C35.392 32.118 35.4276 31.6621 35.4753 31.0919L35.4753 31.0919L35.4757 31.0871L36.3829 18.828C36.4136 18.471 36.4323 18.2236 36.4323 18.1244C36.4323 17.9318 36.3376 17.7819 36.2275 17.6891C36.1323 17.609 36.0285 17.5717 35.96 17.5524C35.8206 17.5133 35.6575 17.5037 35.5024 17.5037C35.1652 17.5037 34.7283 17.5639 34.2078 17.6708L34.2078 17.6708L34.2043 17.6715C33.5164 17.8179 32.9742 17.9633 32.5953 18.1111C32.4088 18.1839 32.2333 18.268 32.0955 18.3705C31.9767 18.459 31.7666 18.6508 31.7666 18.9571C31.7666 19.3152 31.8119 20.1667 31.899 21.4883L31.8991 21.4894L32.3409 27.9704L32.341 27.9717C32.3965 28.758 32.4721 29.9189 32.5676 31.4554L32.5675 31.4554L32.5678 31.4596C32.5996 31.9097 32.6144 32.2161 32.6144 32.3899C32.6144 32.8154 32.958 33.0096 33.1696 33.0809C33.3918 33.1558 33.6727 33.1795 33.9741 33.1795C34.278 33.1795 34.5532 33.1586 34.7699 33.0973C34.9428 33.0483 35.3273 32.8982 35.3674 32.473ZM36.3105 36L36.3105 36L36.3088 35.9959C36.1055 35.518 35.8047 35.1304 35.394 34.866C34.9846 34.6024 34.5024 34.4847 33.9741 34.4847C33.2871 34.4847 32.6883 34.7285 32.2097 35.2124C31.7342 35.6929 31.5039 36.3021 31.5039 37.0002C31.5039 37.6924 31.7355 38.2986 32.206 38.7843L32.2059 38.7844L32.2134 38.7918C32.6928 39.2663 33.2905 39.5037 33.9741 39.5037C34.681 39.5037 35.2974 39.2719 35.7825 38.7918L35.7826 38.7919L35.7898 38.7844C36.2649 38.2942 36.5039 37.6896 36.5039 37.0002C36.5039 36.6496 36.441 36.3145 36.3105 36Z" fill="#0E0025" stroke="#0E0025"/>
</svg>
