<svg width="45" height="45" viewBox="0 0 45 45" fill="none" xmlns="http://www.w3.org/2000/svg">
<path fill-rule="evenodd" clip-rule="evenodd" d="M30.0673 7.81644L23.2883 6L22.441 9.16228C21.3024 9.16673 20.1826 9.31797 19.1059 9.60243L17.4683 6.76626L11.3903 10.2753L13.0279 13.1115C12.2435 13.9019 11.552 14.7959 10.9789 15.7801L7.81644 14.9327L6 21.7117L9.16245 22.5591C9.16669 23.6978 9.31797 24.8174 9.6021 25.894L6.76572 27.5317L10.275 33.6096L13.1113 31.9721C13.9015 32.7569 14.7955 33.448 15.78 34.0213L14.9327 37.1836L21.7117 39L22.559 35.8377C23.6983 35.8334 24.8181 35.682 25.8948 35.3974L27.5324 38.2338L33.6098 34.7245L31.9722 31.8884C32.7566 31.0979 33.4481 30.204 34.0211 29.2199L37.1836 30.0673L39 23.2883L35.8376 22.4409C35.8334 21.302 35.6815 20.1821 35.3974 19.1054L38.2337 17.468L34.7244 11.39L31.8881 13.0274C31.0979 12.2427 30.2038 11.5519 29.22 10.9787L30.0673 7.81644ZM21.0255 28.003C24.0647 28.8173 27.1886 27.0137 28.003 23.9745C28.8173 20.9353 27.0137 17.8114 23.9745 16.997C20.9353 16.1827 17.8114 17.9863 16.997 21.0255C16.1827 24.0647 17.9863 27.1886 21.0255 28.003Z" stroke="#0E0025" stroke-width="3" stroke-linejoin="round"/>
</svg>
