<svg width="45" height="45" viewBox="0 0 45 45" fill="none" xmlns="http://www.w3.org/2000/svg">
<path d="M18.525 42.4747L18.8466 42.5811L19.0646 42.3219C19.4453 41.8695 19.6057 41.2803 19.6057 40.6152C19.6057 40.2239 19.5129 39.8582 19.3078 39.5392C19.1037 39.2215 18.8082 38.9812 18.4518 38.8066L18.4518 38.8066L18.4465 38.8041C18.1184 38.6481 17.7269 38.5291 17.2816 38.4402C16.8713 38.3386 16.4525 38.2456 16.0253 38.1609C15.6225 38.0811 15.3249 37.9976 15.12 37.9152C14.6157 37.6817 14.2568 37.1012 14.2568 35.8567V25.2534L30.6372 25.2534V34.8687C30.602 36.3148 30.34 37.2226 29.9516 37.7106L29.9515 37.7105L29.9447 37.7195C29.7656 37.9553 29.5667 38.1018 29.3486 38.1824C29.1124 38.2698 28.7312 38.3276 28.1715 38.3276C27.6367 38.3276 27.0512 38.2505 26.4129 38.0908L26.1077 38.0145L25.9068 38.2565C25.5478 38.6888 25.3943 39.2412 25.3943 39.8599C25.3943 40.7406 25.7357 41.4489 26.484 41.8391L26.4839 41.8392L26.4949 41.8446C27.1366 42.1595 27.9539 42.2986 28.913 42.2986H39.9549C40.6188 42.2986 41.1588 42.3152 41.5781 42.3475C42.0076 42.3805 42.2769 42.4276 42.4193 42.4747L42.7409 42.5811L42.9589 42.3219C43.3396 41.8695 43.5 41.2803 43.5 40.6152C43.5 40.2212 43.4121 39.8527 43.2125 39.5325C43.0126 39.2117 42.7211 38.9722 42.3673 38.8041C42.0386 38.6478 41.6462 38.5287 41.2 38.4397C40.7669 38.337 40.2237 38.2272 39.573 38.1101C39.015 37.9942 38.5611 37.7472 38.1948 37.371L38.1913 37.3675C38.1301 37.3059 38.0485 37.173 37.9849 36.91C37.9224 36.6513 37.8864 36.3038 37.8864 35.8567V10.1553C37.9126 8.87057 38.1406 7.99026 38.5043 7.44394C38.845 6.93216 39.3305 6.67237 40.0343 6.67237C40.7937 6.67237 41.485 6.75262 42.1107 6.90919L42.3963 6.98065L42.5974 6.7656C42.9923 6.3431 43.1558 5.77686 43.1558 5.14009C43.1558 4.70855 43.0733 4.30845 42.88 3.96392C42.6854 3.61701 42.3953 3.35673 42.0316 3.18195C41.3879 2.84858 40.569 2.70142 39.6106 2.70142H28.8335C28.1696 2.70142 27.6296 2.68476 27.2103 2.65253C26.7808 2.61954 26.5115 2.57239 26.3691 2.52529L26.0545 2.42124L25.836 2.67044C25.4527 3.10785 25.3149 3.74308 25.3149 4.4603C25.3149 4.87511 25.4494 5.26969 25.6855 5.63702L25.6854 5.63712L25.6928 5.64799C25.8652 5.90132 26.1431 6.08103 26.4402 6.21755C26.7471 6.35859 27.1314 6.47898 27.5815 6.58381L27.5896 6.58569L27.5978 6.58731L28.8647 6.83826C28.8654 6.8384 28.866 6.83854 28.8667 6.83867C29.2565 6.91934 29.5351 7.00303 29.7183 7.08342L29.7182 7.08347L29.7255 7.08653C30.2312 7.299 30.5868 7.8083 30.6372 8.87788V20.7789L14.2568 20.7789V10.1555C14.283 8.87066 14.5111 7.99029 14.8748 7.44394C15.2154 6.93217 15.701 6.67238 16.4048 6.67238C17.1642 6.67238 17.8555 6.75262 18.4812 6.9092L18.7668 6.98066L18.9678 6.76561C19.3628 6.34311 19.5262 5.77687 19.5262 5.1401C19.5262 4.70856 19.4438 4.30846 19.2505 3.96393C19.0559 3.617 18.7658 3.35672 18.4021 3.18193C17.7583 2.84858 16.9394 2.70143 15.9811 2.70143H5.20401C4.54005 2.70143 4.0001 2.68477 3.58073 2.65254C3.15129 2.61955 2.88196 2.5724 2.73955 2.5253L2.39852 2.41251L2.18278 2.6997C1.83108 3.16787 1.68536 3.77405 1.68536 4.46031C1.68536 4.87512 1.81992 5.2697 2.05601 5.63703L2.05587 5.63713L2.06327 5.648C2.23566 5.90133 2.5136 6.08104 2.81066 6.21756C3.11755 6.3586 3.50183 6.47899 3.952 6.58382L3.96009 6.5857L3.96824 6.58732L5.23717 6.83868C5.62701 6.91935 5.90555 7.00304 6.08873 7.08343L6.08871 7.08348L6.09599 7.08654C6.60169 7.29901 6.95724 7.80831 7.00771 8.87789V34.623C7.00771 36.1485 6.74473 37.1205 6.32462 37.657C6.1131 37.9104 5.87789 38.0797 5.61863 38.1803C5.33812 38.2717 4.92505 38.3276 4.35667 38.3276C3.80251 38.3276 3.18865 38.2501 2.51282 38.0894L2.21081 38.0176L2.01251 38.2565C1.65351 38.6888 1.5 39.2412 1.5 39.8599C1.5 40.7406 1.84143 41.4489 2.58969 41.8391L2.58962 41.8392L2.60058 41.8446C3.24224 42.1595 4.0596 42.2986 5.01865 42.2986H16.0606C16.7245 42.2986 17.2645 42.3152 17.6838 42.3475C18.1133 42.3805 18.3826 42.4276 18.525 42.4747Z" fill="url(#paint0_radial_40_110)" stroke="url(#paint1_radial_40_110)"/>
<defs>
<radialGradient id="paint0_radial_40_110" cx="0" cy="0" r="1" gradientUnits="userSpaceOnUse" gradientTransform="translate(-3.85714 52.0286) rotate(-44.4769) scale(50.8936 50.9108)">
<stop stop-color="#490ACF"/>
<stop offset="1" stop-color="#6944FE"/>
</radialGradient>
<radialGradient id="paint1_radial_40_110" cx="0" cy="0" r="1" gradientUnits="userSpaceOnUse" gradientTransform="translate(-3.85714 52.0286) rotate(-44.4769) scale(50.8936 50.9108)">
<stop stop-color="#490ACF"/>
<stop offset="1" stop-color="#6944FE"/>
</radialGradient>
</defs>
</svg>
